# xmcd
#
# Track frame offsets:
#	150
#	12000
#	31250
#	45487
#	56400
#	70425
#	85675
#	102475
#	119725
#	135562
#	146575
#	159300
#
# Disc length: 2278 seconds
#
# Revision: 1
# Processed by: cddbd v1.5.1PL0 Copyright (c) Steve Scherf et al.
# Submitted via: audiograbber 1.83.01
#
DISCID=9c08e40c
DTITLE=Gillespie, Dana - I'm a Woman (The Blues Line)
DYEAR=1991
DGENRE=Blues
TTITLE0=Big Ten Inch
TTITLE1=Mighty Tight Woman
TTITLE2=7th Floor Boogie
TTITLE3=Feelin' Shakey
TTITLE4=Choo Choo Ch'Boogie
TTITLE5=Gotta Go Home
TTITLE6=Shooee ... Get out!
TTITLE7=I'm a Woman
TTITLE8=Meat on their Bones
TTITLE9=Mama, he Treats your Daughter Mean
TTITLE10=Oo ee Baby
TTITLE11=Rockin' Pneumonia and the Boogie Woogie Flu
EXTD=
EXTT0=
EXTT1=
EXTT2=
EXTT3=
EXTT4=
EXTT5=
EXTT6=
EXTT7=
EXTT8=
EXTT9=
EXTT10=
EXTT11=
PLAYORDER=
